<?xml version="1.0"?>
<svg xmlns="http://www.w3.org/2000/svg" xmlns:xlink="http://www.w3.org/1999/xlink" version="1.1" viewBox="0 0 192 192" width="26px" height="26px"><g fill="none" fill-rule="nonzero" stroke="none" stroke-width="1" stroke-linecap="butt" stroke-linejoin="miter" stroke-miterlimit="10" stroke-dasharray="" stroke-dashoffset="0" font-family="none" font-weight="none" font-size="none" text-anchor="none" style="mix-blend-mode: normal"><path d="M0,192v-192h192v192z" fill="none"/><g id="original-icon" fill="#cccccc"><g id="surface1"><path d="M160.5,145.03846l-15.49038,15.46154c-2.82693,2.85577 -7.44231,2.85577 -10.29808,0l-38.71154,-38.68269l-38.68269,38.68269c-2.85577,2.85577 -7.5,2.85577 -10.32693,0l-15.49038,-15.46154c-2.85577,-2.85577 -2.85577,-7.47116 0,-10.32692l38.68269,-38.71154l-38.68269,-38.68269c-2.82692,-2.88462 -2.82692,-7.52884 0,-10.32693l15.49038,-15.49038c2.82693,-2.85577 7.47116,-2.85577 10.32693,0l38.68269,38.71154l38.71154,-38.71154c2.85576,-2.85577 7.5,-2.85577 10.29808,0l15.49038,15.46154c2.85577,2.85577 2.85577,7.5 0.02884,10.35577l-38.71153,38.68269l38.68269,38.71154c2.85577,2.85576 2.85577,7.47115 0,10.32692z"/></g></g></g></svg>
